# xmcd
#
# Track frame offsets: 
#        150
#        18129
#        36978
#        50517
#        64125
#        76091
#        90986
#        102391
#        124461
#        141380
#        154825
#        170311
#        193428
#        207647
#
# Disc length: 3010 seconds
#
# Revision: 0
# Processed by: cddbd v1.5.2PL0 Copyright (c) Steve Scherf et al.
# Submitted via: ExactAudioCopyFreeDBPlugin 1.0
#
DISCID=c70bc00e
DTITLE=The Seiglers with Kenny Snow - Alaska Till The Sun Goes Down
DYEAR=1900
DGENRE=Country
TTITLE0=Black Mountain Rag
TTITLE1=Have I Told You Lateley
TTITLE2=Footprints In The Snow
TTITLE3=Kentucky Waltz
TTITLE4=Tumblin' Tumbleweeds
TTITLE5=Ghost Riders In The Sky
TTITLE6=Back In The Saddle
TTITLE7=Orange Blossom Special
TTITLE8=Lord Lead Me On
TTITLE9=Everybody Wants To Go To Heaven
TTITLE10=I'll Have A New Life
TTITLE11=Twelve Men
TTITLE12=A Beautiful Life
TTITLE13=Romans Ten And Nine
EXTD=
EXTT0=
EXTT1=
EXTT2=
EXTT3=
EXTT4=
EXTT5=
EXTT6=
EXTT7=
EXTT8=
EXTT9=
EXTT10=
EXTT11=
EXTT12=
EXTT13=
PLAYORDER=
